<svg viewBox="0 0 24 24" height="24" width="24" preserveAspectRatio="xMidYMid meet" fill="none">
<title>Logout</title><path d="M5 21C4.45 21 3.97917 20.8042 3.5875 20.4125C3.19583 20.0208 3 19.55 3 19V5C3 4.45 3.19583 3.97917 3.5875 3.5875C3.97917 3.19583 4.45 3 5 3H11C11.5523 3 12 3.44772 12 4C12 4.55228 11.5523 5 11 5H5V19H11C11.5523 19 12 19.4477 12 20C12 20.5523 11.5523 21 11 21H5ZM16.7252 16.2748C16.3279 16.6721 15.681 16.6636 15.2943 16.2558C14.9218 15.863 14.93 15.245 15.3127 14.8623L17.175 13H10C9.44771 13 9 12.5523 9 12C9 11.4477 9.44772 11 10 11H17.175L15.3127 9.13775C14.93 8.755 14.9218 8.13701 15.2943 7.74424C15.681 7.33644 16.3279 7.32786 16.7252 7.72525L21 12L16.7252 16.2748Z" fill="currentColor"></path>
</svg>